/* XPM */
static char *f924359cc14443a2f3dea1b108fedad8[] = {
/* columns rows colors chars-per-pixel */
"16 16 57 1 ",
"  c None",
". c #603A00",
"X c #704B00",
"o c #775001",
"O c #7B5200",
"+ c #7D5808",
"@ c #7D590F",
"# c #6B4813",
"$ c #775412",
"% c #76551C",
"& c #8C640F",
"* c #8D6411",
"= c #8E6918",
"- c #9C7214",
"; c #9F7415",
": c #A17912",
"> c #A37B14",
", c #A87F14",
"< c #846224",
"1 c #89692B",
"2 c #8F6E2E",
"3 c #846736",
"4 c #8A6C38",
"5 c #9C7931",
"6 c #8B7040",
"7 c #8D734A",
"8 c #91774F",
"9 c #94784A",
"0 c #957D54",
"q c #BE910D",
"w c #B28919",
"e c #CC9F14",
"r c #CDA31F",
"t c #D3A91E",
"y c #D8AC1C",
"u c #ECBD13",
"i c #C79D20",
"p c #C09D3E",
"a c #CBA42C",
"s c #DDB42C",
"d c #CCA93C",
"f c #DEBA3D",
"g c #E1BC3B",
"h c #ECC023",
"j c #EBC63D",
"k c #A38650",
"l c #B39452",
"z c #B59E73",
"x c #CEAE4F",
"c c #C0A152",
"v c #DFC25F",
"b c #ECC849",
"n c #E9C958",
"m c #EECF5E",
"M c #F1D46C",
"N c #E0C87C",
"B c #EBD070",
/* pixels */
"                ",
"       fB       ",
"      xrsm      ",
"      Ney       ",
"  25l      bjh  ",
"  1O:      tun  ",
"  9=  ;     gM  ",
"      & w       ",
"       *-       ",
"  7<       ,iv  ",
"  3.+      >qa  ",
"  #%6      cpd  ",
"       Xoz      ",
"      8$@k      ",
"       04       ",
"                "
};
