/* XPM */
static char *_020d64843dc4c37cf3ed28fa59a6662[] = {
/* columns rows colors chars-per-pixel */
"64 64 154 2 ",
"   c None",
".  c #5C3500",
"X  c #5F3900",
"o  c #633D01",
"O  c #664303",
"+  c #6A4502",
"@  c #6D4A06",
"#  c #684308",
"$  c #6E4B0A",
"%  c #744700",
"&  c #724C04",
"*  c #784F00",
"=  c #724E09",
"-  c #765105",
";  c #7B5304",
":  c #7E5803",
">  c #755109",
",  c #7A550A",
"<  c #7E590C",
"1  c #6C4A11",
"2  c #745315",
"3  c #7E5B15",
"4  c #75541F",
"5  c #7B5A1A",
"6  c #775A23",
"7  c #7C5B24",
"8  c #795D29",
"9  c #815601",
"0  c #835A03",
"q  c #885F03",
"w  c #835C0D",
"e  c #885E0D",
"r  c #805B12",
"t  c #925310",
"y  c #8F6604",
"u  c #86600F",
"i  c #8B640D",
"p  c #936804",
"a  c #9C6F06",
"s  c #91670C",
"d  c #946A0D",
"f  c #996E0C",
"g  c #9D7004",
"h  c #9C730A",
"j  c #8C6511",
"k  c #8E6911",
"l  c #8D681C",
"z  c #906712",
"x  c #936B12",
"c  c #996E12",
"v  c #926C1E",
"b  c #977013",
"n  c #9C7414",
"m  c #9E7913",
"M  c #A0750F",
"N  c #A67B0B",
"B  c #AB7E0B",
"V  c #A07716",
"C  c #A37A16",
"Z  c #A87F17",
"A  c #A57D1A",
"S  c #A97F19",
"D  c #80612B",
"F  c #926F29",
"G  c #806432",
"H  c #8D6C32",
"J  c #A17D2A",
"K  c #B2860C",
"L  c #B6890B",
"P  c #AD8216",
"I  c #A68018",
"U  c #AD8419",
"Y  c #B48B13",
"T  c #B0871A",
"R  c #B48B1B",
"E  c #B98E1B",
"W  c #BE9111",
"Q  c #BC921C",
"!  c #AC8422",
"~  c #B48C22",
"^  c #BC9421",
"/  c #B49138",
"(  c #CD9F04",
")  c #C2950F",
"_  c #C5990E",
"`  c #CC9E0E",
"'  c #C29514",
"]  c #C79B11",
"[  c #C99C14",
"{  c #C1961D",
"}  c #C59B1E",
"|  c #C99E1E",
" . c #DDAF0F",
".. c #CEA31D",
"X. c #D2A413",
"o. c #DAAD13",
"O. c #D1A51B",
"+. c #D5AA1C",
"@. c #D9AD1E",
"#. c #DCB117",
"$. c #DDB11D",
"%. c #E5B50E",
"&. c #ECBD0E",
"*. c #E0B215",
"=. c #E6BA15",
"-. c #EBBD15",
";. c #E3B61A",
":. c #E6B91B",
">. c #ECBE1C",
",. c #C39720",
"<. c #C69C21",
"1. c #C99F20",
"2. c #C49E32",
"3. c #CDA321",
"4. c #C9A52E",
"5. c #D1A622",
"6. c #D4AA23",
"7. c #D9AE23",
"8. c #DCB224",
"9. c #DFB628",
"0. c #C7A130",
"q. c #E2B624",
"w. c #E5BA26",
"e. c #EABE22",
"r. c #E3B92B",
"t. c #E9BE28",
"y. c #E4BB31",
"u. c #EDC01D",
"i. c #F1C41E",
"p. c #E7C026",
"a. c #EDC224",
"s. c #EEC329",
"d. c #F0C323",
"f. c #F1C52A",
"g. c #F5CA2B",
"h. c #EEC531",
"j. c #ECC439",
"k. c #9C845D",
"l. c #B39346",
"z. c #BA9A48",
"x. c #A7916E",
"c. c #AB946B",
"v. c #AC9878",
"b. c #C5A54C",
"n. c #D2B35A",
"m. c #E6C246",
"M. c #EDC842",
"N. c #F0CB49",
"B. c #F0D269",
"V. c #EFD574",
"C. c #B5A78F",
"Z. c #D9C9A3",
"A. c #D8CAAC",
"S. c #F8F1D0",
/* pixels */
"                                                                                                                                ",
"                                                                                                                                ",
"                                                                                                                                ",
"                                                              w.e.                                                              ",
"                                                            q.w.t.=.                                                            ",
"                                                          o.9.q.w.:.                                                            ",
"                                                          +.8.9.w.q.                                                            ",
"                                                          ..8.8.q.                                                              ",
"                                                              8.                                                                ",
"                                                  ' _ [ ..3.      8.q.:.:.-.                                                    ",
"                                              L W ' } 1...5.6.  7.8.9.q.r.:.e.u.-.                                              ",
"                                            Y L ^   0.} 1.3.3.  6.8.8.q.r.  j.a.i.-.M.                                          ",
"                                            ~       n.' <.3.3.  6.7.8.$.m.        N.                                            ",
"                                    h !               W ,.<.}   3.6.7.7.y.              -.i.                                    ",
"                                f n h l.              L { 3.5.3.6.6.6.@.                h.a.a.-.                                ",
"                              s c p                 9.7.q.w.t.t.r.r.q.7.3.                  a.a.:.                              ",
"                            i d s               V.%.$.7.                w.$._                 a.f.#.      q.-.a.                ",
"              , 0 w %     9 z x y             y...                          r.@.2.Z.        s.s.s.i.    a.a.s.s.s.              ",
"              w w w w     q j x x x       &...Q       3.6.7.6.    p.s.s.s.      q.] f     =.s.s.s.s.    a.f.s.s.u.              ",
"              , w w w ,   j j j x x s   :.{       { <.                    a.s.      3.K :.f.s.s.s.s.    s.s.s.f.=.              ",
"              + , w w w   w j z j k c 6.E     T E                             s.t.    | T s.s.s.s.s.    q.f.u.a.                ",
"                & r <       i j j j 3.Q     A                                   s.a.    { R f.s.    f.                          ",
"                        w u     j R }     V                                         s.    R }     s.s.s.a.                      ",
"                    * w w r r   c 5.m   z                                           s.a.  5.A w.s.s.s.s.s.>.                    ",
"                  H * < w w u < Q R     x                                             t.    R E f.s.s.s.s.i.                    ",
"                  = , , , w < k 3.    j z x c n V A Z U                                 g.  ..C r.s.s.>.a.f.                    ",
"                  + = > r ; > T Q               c n C                                   a.    I | a.>.    u.s.                  ",
"                  + =       5 Q b   w           t n V         R E { ,.{                       R h         >.a.                  ",
"                  + 5         `     <             x n n         R Q E       3.  7.7.q.r.t.g.  } 3         >.-.                  ",
"                  O 5         _     >             x c c         U R R       <.3.6.        p.    q         >.-.                  ",
"                  .           Y     >             e x v         A U R         }           r.    y         B.a.                  ",
"                            S.R                     j x z       A S U R     Q                   h                               ",
"                              K                     j j z     x   C S U     R                   I                               ",
"                  # x.        L     #               w j j     c   n C S     R             6.    c         *.%.                  ",
"                  O $         W     O                 u j           V A                   3.    :          .;.                  ",
"                  + 1         ]     @                 w u u i       c n V Z               |   Q y         o.#.                  ",
"                  O o         Y b   O                 , w r i       z n n n               }   U n 3.      @.o.                  ",
"                  o @     o o b I     O                 < w           x n               Q     b U 5.O...O.8.@.                  ",
"                  O @ + O @ @ > R     #                 , <           z z               R   U k } 3.3.3.6.@.4.                  ",
"                  8 + @ $ @ $ + m b     @                                             P     n m 3.<.3.3.6.X.                    ",
"                    o @ @ @ @ @ > U w   O                                           C n   P w Q { } 1.3.5.O.                    ",
"                    1 @ @ = $     k n     @                                         n     j V Q     | 1.                        ",
"                              @ $ + n k     @ @                                 z x     j j Q E Q {         `                   ",
"                O O @       @ @ @ @ $ n <     + @                             j j     s 0 R R R E ^ {   R 5.3.5.(               ",
"              X = @ @ @     @ @ $ $ @ = b :       @ @                     w w       0 2 / P T R E Q Q   <.1.1.3.6.              ",
"              @ @ @ @ =   # @ $ $ + o     J ; =       @ @ @ @     = > > ,       i &         ~ T R Q Y   <.} 1.3.3.              ",
"              @ = @ + o   7 + = + 8         A.x % =                         w ; 7             B T L b.    ' } ]                 ",
"                  X 4       o @ @                 ; + =               , , & O v.              P Z ~                             ",
"                              O @ +                   < > > = @ $ = > > ;                   C B z.                              ",
"                                o + +                 2 - , , , , w w u e               f M a                                   ",
"                                    . o               = > > < ,   w u u 9               n f                                     ",
"                                          C.D         $ > > , >   < w w 9         ;                                             ",
"                                          6 X + o     = > > , , > < < w w j   9 i 0                                             ",
"                                              $ o + + @ = > > >   < < r w w 0 9 x                                               ",
"                                                  7 O o O +         , - * w F                                                   ",
"                                                        k.    & >     c.                                                        ",
"                                                            @ @ > &                                                             ",
"                                                            o = = - ,                                                           ",
"                                                            o $ = & 3                                                           ",
"                                                            . = = @                                                             ",
"                                                                $                                                               ",
"                                                                                                                                ",
"                                                                                                                                ",
"                                                                                                                                "
};
