/* XPM */
static char *f2ca70a7734940a7c01d0a553cf4d3ed[] = {
/* columns rows colors chars-per-pixel */
"32 32 225 2 ",
"   c None",
".  c #5F3900",
"X  c #603A00",
"o  c #613B00",
"O  c #633D00",
"+  c #623E00",
"@  c #633F01",
"#  c #613C02",
"$  c #643F00",
"%  c #674100",
"&  c #684100",
"*  c #6A4600",
"=  c #6B4603",
"-  c #6C4500",
";  c #6F4600",
":  c #694705",
">  c #6B4706",
",  c #6C4706",
"<  c #6E4900",
"1  c #6F4900",
"2  c #6D4905",
"3  c #6D4A04",
"4  c #6D4A06",
"5  c #6D4809",
"6  c #6D4A0E",
"7  c #6E4A0E",
"8  c #704B01",
"9  c #734D00",
"0  c #714D06",
"q  c #775106",
"w  c #795201",
"e  c #7B5300",
"r  c #7A5303",
"t  c #7E5300",
"y  c #7E5400",
"u  c #7E5602",
"i  c #7E5707",
"p  c #755109",
"a  c #765209",
"s  c #77520A",
"d  c #785308",
"f  c #79550A",
"g  c #78550B",
"h  c #7A560C",
"j  c #6C4A16",
"k  c #7F5A15",
"l  c #715019",
"z  c #7C5E28",
"x  c #7D5F2E",
"c  c #7E6031",
"v  c #815803",
"b  c #895C00",
"n  c #825B0B",
"m  c #865F08",
"M  c #815B0D",
"N  c #825C0C",
"B  c #825C0D",
"V  c #825E1E",
"C  c #85600D",
"Z  c #88610F",
"A  c #89610F",
"S  c #89630F",
"D  c #8C630C",
"F  c #906300",
"G  c #936A09",
"H  c #876114",
"J  c #866115",
"K  c #8B6410",
"L  c #8F6711",
"P  c #906711",
"I  c #926911",
"U  c #906812",
"Y  c #916912",
"T  c #916913",
"R  c #9A6C14",
"E  c #986E14",
"W  c #906D1C",
"Q  c #977213",
"!  c #987012",
"~  c #9D7315",
"^  c #9B7415",
"/  c #9D7415",
"(  c #9E7714",
")  c #9E7815",
"_  c #A17815",
"`  c #A27815",
"'  c #A27916",
"]  c #A37F17",
"[  c #A77E16",
"{  c #A97F18",
"}  c #8F6921",
"|  c #886728",
" . c #89692A",
".. c #916C20",
"X. c #836433",
"o. c #846535",
"O. c #886930",
"+. c #896C39",
"@. c #8B6E3D",
"#. c #91743E",
"$. c #886E41",
"%. c #967C53",
"&. c #B08305",
"*. c #AA8115",
"=. c #AA8118",
"-. c #AF8619",
";. c #B08410",
":. c #B78C16",
">. c #B98D13",
",. c #B48A1A",
"<. c #B28C1B",
"1. c #B48C1A",
"2. c #B38A1D",
"3. c #B88E1C",
"4. c #B9901B",
"5. c #BD921D",
"6. c #BF941E",
"7. c #AF8827",
"8. c #AA852E",
"9. c #BF9723",
"0. c #A58337",
"q. c #B08E3B",
"w. c #BD9732",
"e. c #C29716",
"r. c #CB9F15",
"t. c #C29718",
"y. c #C3991E",
"u. c #C69B1C",
"i. c #C59A1E",
"p. c #C79E1F",
"a. c #C89D18",
"s. c #C89C1B",
"d. c #C89C1F",
"f. c #C89E1E",
"g. c #DEAF0D",
"h. c #CEA21A",
"j. c #CEA31C",
"k. c #CCA21E",
"l. c #D0A210",
"z. c #D2A514",
"x. c #D8AB15",
"c. c #DCAD16",
"v. c #D1A51C",
"b. c #D6AA1A",
"n. c #DAAE1D",
"m. c #DFB31E",
"M. c #E0B317",
"N. c #EBBC13",
"B. c #ECBD13",
"V. c #EFBF16",
"C. c #E2B51C",
"Z. c #ECBE18",
"A. c #ECBF1A",
"S. c #E8BC1D",
"D. c #CEA321",
"F. c #CDA421",
"G. c #CDA521",
"H. c #CFA625",
"J. c #CEA62B",
"K. c #D2A622",
"L. c #D8AD23",
"P. c #D8AE23",
"I. c #DAB024",
"U. c #DCB124",
"Y. c #DAB12A",
"T. c #CFAB38",
"R. c #CDA93C",
"E. c #D5AF3A",
"W. c #D9B335",
"Q. c #DEB835",
"!. c #E6BB22",
"~. c #E8BC23",
"^. c #E2B92C",
"/. c #E7BF2E",
"(. c #E8BF2A",
"). c #E5BF3B",
"_. c #EEC11E",
"`. c #E8C026",
"'. c #EEC125",
"]. c #EDC126",
"[. c #EFC326",
"{. c #ECC128",
"}. c #EEC228",
"|. c #EEC329",
" X c #EAC12C",
".X c #EFC42C",
"XX c #F0C426",
"oX c #F0C52A",
"OX c #E7C036",
"+X c #EFC83F",
"@X c #9D8049",
"#X c #9E8557",
"$X c #A98D4A",
"%X c #AA8C4A",
"&X c #A88B51",
"*X c #A2895C",
"=X c #A88E5D",
"-X c #AD9353",
";X c #B79756",
":X c #A89374",
">X c #AB9778",
",X c #BCA773",
"<X c #CAA949",
"1X c #D2B047",
"2X c #D8B544",
"3X c #D5B654",
"4X c #D2B658",
"5X c #D8BA5B",
"6X c #C3A762",
"7X c #C1A566",
"8X c #D5BE71",
"9X c #DFC15F",
"0X c #EDC843",
"qX c #EFCB44",
"wX c #E7C348",
"eX c #E5C450",
"rX c #ECCA50",
"tX c #ECCB50",
"yX c #F1D160",
"uX c #F0D46C",
"iX c #C3B59F",
"pX c #CDBE9D",
"aX c #DCCA98",
"sX c #ECD789",
"dX c #F1E0A5",
/* pixels */
"                                                                ",
"                              g.                                ",
"                              M.!.                              ",
"                              c.^.                              ",
"                          1XJ.    ).rX                          ",
"                      &.9.u.k.G.P.m.OX].B.                      ",
"                  q.      <Xe.d.K.x.    dX  `.                  ",
"                F 7X      E.v.I.U.n.5X      uXZ.                ",
"        J     b 0.    sXW.          C.j.aX    .XS.  0XN.        ",
"      d e H ..D T   Q.                  b.w./.XX}.  '.V.        ",
"        k     K P >.                        s.|.{.  (.tX        ",
"          q N M =.]                         p.F.oX[. X          ",
"          ; r S 1.  U   '                     <.~._.A.          ",
"        @.O.#.^         R )     5.              T.  +X          ",
"        5     3X        A E     ,.    D.L.          yXqX        ",
"              8X          Y     { -.            -X              ",
"              4X          S L   _ {             ,X              ",
"        + >X              n Z     ~ '           $X  eXwX        ",
"        $.z   W             B     I /         *.4.2XY.9X        ",
"          X $ 0 !                             ( i.h.z.          ",
"          7 3 : C                           Q [ y.f.H.          ",
"        o.    4 4 m                         G 3.6.    l.        ",
"        O *   2 > +.%X9                 t #X6X2.:.  t.r.a.      ",
"        6 c   % l     pXV              .iX    7.;.    R.        ",
"                # x       *X8 p s w @X      8.`                 ",
"                      :X    1 f h v &X      ;X                  ",
"                      j o = < a g i u y }                       ",
"                          %.X.    | =X                          ",
"                              , -                               ",
"                              @ &                               ",
"                                .                               ",
"                                                                "
};
